<svg xmlns="http://www.w3.org/2000/svg" width="512" height="512"><linearGradient id="a" x1="21.998" x2="341.189" y1="402.794" y2="83.603" gradientUnits="userSpaceOnUse"><stop offset="0" stop-color="#0FF"/><stop offset="1" stop-color="#FF7BAC"/></linearGradient><path fill="url(#a)" d="M46.978 58.623h269.231v369.15H46.978z"/><path fill="#FFF" d="M274.167 122.428c6.435 0 6.444-10 0-10H90.181c-6.435 0-6.444 10 0 10h183.986zM274.167 158.122c6.435 0 6.444-10 0-10H90.181c-6.435 0-6.444 10 0 10h183.986zM274.167 193.817c6.435 0 6.444-10 0-10H90.181c-6.435 0-6.444 10 0 10h183.986zM222.512 230.382c6.434 0 6.444-10 0-10H90.181c-6.435 0-6.444 10 0 10h132.331zM90.181 266.015h183.986c6.435 0 6.444-10 0-10H90.181c-6.435 0-6.445 10 0 10zM274.167 301.709c6.435 0 6.444-10 0-10H90.181c-6.435 0-6.444 10 0 10h183.986zM274.167 337.404c6.435 0 6.444-10 0-10H90.181c-6.435 0-6.444 10 0 10h183.986zM222.512 373.969c6.434 0 6.444-10 0-10H90.181c-6.435 0-6.444 10 0 10h132.331z"/><circle cx="279.463" cy="267.817" r="87.567" fill="#FFF"/><path fill="#3F5EAB" d="m461.244 424.707-60.817-60.818-5.375 5.375-39.949-39.948a96.806 96.806 0 0 0 5.938-7.972c25.443-38.193 19.284-90.114-12.587-122.516-29.193-28.715-72.968-36.289-110.194-19.424-36.777 16.661-59.988 57.191-55.909 97.32 4.137 40.701 33.292 75.83 73.356 85.735 30.183 7.461 61.696-.195 85.175-19.08l40.028 40.027-5.375 5.375 60.817 60.817c5.748 5.748 15.979 4.835 22.854-2.038 6.873-6.873 7.786-17.105 2.038-22.853zM271.241 345c-32.204-3.02-59.442-27.633-67.133-58.742-7.67-31.024 5.218-64.984 31.923-82.748 30.814-20.498 71.934-16.455 98.28 9.46 22.342 22.714 29.491 58.063 15.71 87.228-14.243 30.138-45.65 47.908-78.78 44.802z"/></svg>